<?xml version="1.0" encoding="UTF-8"?>
<svg id="Layer_2" data-name="Layer 2" xmlns="http://www.w3.org/2000/svg" viewBox="0 0 265.21 282.26">
  <defs>
    <style>
      .cls-1 {
        fill: #d2d2d2;
      }
    </style>
  </defs>
  <g id="Layer_1-2" data-name="Layer 1">
    <path class="cls-1" d="M247.02,272.51c0,3.56-3.07,6.45-6.85,6.45s-6.85-2.89-6.85-6.45,3.06-6.46,6.85-6.46,6.85,2.89,6.85,6.46Z"/>
    <path class="cls-1" d="M265.21,0V15.41l-2.33,.07c-12.49,.36-20.73,2.26-24.49,5.64-2.51,2.28-5.51,8.05-5.51,22.69V198.75c0,26.89-8.72,47.8-25.93,62.09-17.1,14.21-42.1,21.42-74.32,21.42s-58.36-6.79-76.63-20.17c-18.49-13.57-27.86-32.77-27.86-57.08V15.85H0V0H158.64V15.85h-30.53V202.17c0,17.98,3.13,31.28,9.31,39.53,6.1,8.16,15.41,12.13,28.45,12.13,15.77,0,28.1-4.78,36.65-14.21,8.64-9.5,13.01-23.26,13.01-40.87V43.81c0-14.5-2.95-20.35-5.43-22.74-3.66-3.47-11.73-5.35-23.97-5.59l-2.3-.05-.3-15.43h81.68Z"/>
  </g>
</svg>